<?xml version="1.0" encoding="utf-8"?>
<!-- Generator: Adobe Illustrator 18.0.0, SVG Export Plug-In . SVG Version: 6.00 Build 0)  -->
<!DOCTYPE svg PUBLIC "-//W3C//DTD SVG 1.1//EN" "http://www.w3.org/Graphics/SVG/1.1/DTD/svg11.dtd">
<svg version="1.1" id="Layer_1" xmlns="http://www.w3.org/2000/svg" xmlns:xlink="http://www.w3.org/1999/xlink" x="0px" y="0px"
	 viewBox="0 0 484.4 107.2" enable-background="new 0 0 484.4 107.2" xml:space="preserve">
<g>
	<path fill-rule="evenodd" clip-rule="evenodd" fill="#ffffff" d="M52.4,82c0.5,0.6,0.8,1.2,0.8,1.9c0,3.5-7.5,6.3-16.7,6.3
		c-9.2,0-16.7-2.8-16.7-6.3c0-0.7,0.3-1.3,0.8-1.9c2.1,2.5,8.5,4.4,15.9,4.4C43.9,86.4,50.3,84.6,52.4,82L52.4,82z M49.2,99.2v0.1
		c0,3.5-5.7,6.3-12.7,6.3c-7,0-12.7-2.8-12.7-6.3l0-0.1c-2.5-1.1-4-2.5-4-4c0-0.7,0.3-1.3,0.8-1.9c2.1,2.5,8.5,4.4,15.9,4.4
		c7.5,0,13.8-1.8,15.9-4.4c0.5,0.6,0.8,1.2,0.8,1.9C53.2,96.7,51.7,98.1,49.2,99.2L49.2,99.2z M52.4,87.6c0.5,0.6,0.8,1.2,0.8,1.9
		c0,3.5-7.5,6.3-16.7,6.3c-9.2,0-16.7-2.8-16.7-6.3c0-0.7,0.3-1.3,0.8-1.9C22.7,90.2,29,92,36.5,92C43.9,92,50.3,90.2,52.4,87.6
		L52.4,87.6z"/>
	<path fill-rule="evenodd" clip-rule="evenodd" fill="#ffffff" d="M53.2,78.6c0,3.3-7.5,6.1-16.8,6.1c-9.3,0-16.8-2.7-16.8-6.1
		C16.9,62.5,0,55.4,0,35.2C0,15.8,16.3,0,36.5,0c20.1,0,36.5,15.8,36.5,35.2C72.9,55.4,56,62.5,53.2,78.6L53.2,78.6z M51.1,74.6
		c0,3-6.6,5.5-14.7,5.5c-8.1,0-14.7-2.5-14.7-5.5C19.4,60.3,4.6,54.9,4.6,36.5c0-17.6,14.3-31.9,31.9-31.9
		c17.6,0,31.9,14.3,31.9,31.9C68.4,54.9,53.6,60.3,51.1,74.6L51.1,74.6z"/>
	<path fill="#ffffff" d="M27.4,74.5c1.1-2.3,2.8-6.6,4.6-12.4c-0.7-4.4-0.8-9.9-0.1-16.6c0.8-8.2,1.9-12.7,3-14.6
		c0.8-1.5,1.8-1.9,2.8-1.4c0.7,0.3,1.3,1.2,1.6,2.5l0,0c0.7,2.7,0.8,8.2-0.5,14.1c-1.3,6.1-2.8,11.6-4.2,16.3
		c0.4,2.5,1.1,4.6,1.9,6.1c0.7,1.4,1.5,2.3,2.3,2.7c0.7,0.4,1.5,0.4,2.3,0c1.5-0.7,3-2.5,4.5-5.5l2.2,1c-1.7,3.6-3.7,5.8-5.7,6.7
		c-1.5,0.7-3,0.6-4.4-0.1c-1.3-0.7-2.4-1.9-3.3-3.8c-0.4-0.8-0.8-1.8-1.1-2.8c-1.4,4-2.6,7.1-3.5,8.9L27.4,74.5L27.4,74.5z
		 M33.9,55.8c0.9-3.1,1.7-6.6,2.5-10.3c1.2-5.5,1.2-10.5,0.5-13v0l-0.1-0.2c-0.9,1.8-1.8,6-2.6,13.4C33.9,49.5,33.8,52.8,33.9,55.8
		L33.9,55.8z M36.7,31.7L36.7,31.7C36.5,31.6,36.6,31.6,36.7,31.7L36.7,31.7z"/>
	<path fill="#ffffff" d="M479.3,61.7V39.9c0-2.8-0.6-4.8-1.9-6.2c-1.3-1.4-3.2-2-5.9-2c-3.6,0-6.1,1-7.8,2.9
		c-1.6,1.9-2.5,5.1-2.5,9.5v17.6h-5.1v-48h5.1v14.5c0,1.7-0.1,3.2-0.2,4.3h0.3c1-1.6,2.4-2.9,4.3-3.8c1.9-0.9,4-1.4,6.4-1.4
		c4.1,0,7.2,1,9.3,2.9c2.1,2,3.1,5.1,3.1,9.3v22H479.3L479.3,61.7z M449,58.1c0.9,0,1.8-0.1,2.6-0.2c0.8-0.1,1.5-0.3,2-0.4v3.9
		c-0.6,0.3-1.4,0.5-2.5,0.7c-1.1,0.2-2,0.3-2.9,0.3c-6.5,0-9.8-3.4-9.8-10.3V31.9h-4.8v-2.5l4.8-2.1l2.2-7.2h3v7.8h9.8v4h-9.8v19.9
		c0,2,0.5,3.6,1.5,4.7C446,57.6,447.3,58.1,449,58.1L449,58.1z M431.5,61.7h-5.1v-48h5.1V61.7L431.5,61.7z M404.7,58.1
		c3.2,0,5.7-0.9,7.5-2.6c1.8-1.8,2.7-4.2,2.7-7.3v-3.1l-5.1,0.2c-4.1,0.1-7,0.8-8.8,1.9c-1.8,1.1-2.7,2.9-2.7,5.2
		c0,1.8,0.6,3.3,1.7,4.2C401.1,57.6,402.7,58.1,404.7,58.1L404.7,58.1z M416.3,61.7l-1-4.8H415c-1.7,2.1-3.4,3.6-5,4.3
		c-1.7,0.7-3.8,1.1-6.3,1.1c-3.4,0-6-0.9-7.9-2.6c-1.9-1.7-2.8-4.2-2.8-7.4c0-6.8,5.5-10.4,16.3-10.7l5.7-0.2v-2.1
		c0-2.6-0.6-4.6-1.7-5.9c-1.2-1.3-3-1.9-5.5-1.9c-2.8,0-6,0.9-9.5,2.6l-1.6-3.9c1.7-0.9,3.5-1.6,5.5-2.1c2-0.5,4-0.8,6-0.8
		c4,0,7,0.9,8.9,2.7c1.9,1.8,2.9,4.6,2.9,8.6v23H416.3L416.3,61.7z M377.2,31.6c-2.7,0-4.9,0.9-6.5,2.6c-1.6,1.8-2.6,4.2-2.8,7.3
		h17.6c0-3.2-0.7-5.7-2.1-7.4C381.9,32.5,379.9,31.6,377.2,31.6L377.2,31.6z M378.6,62.3c-5,0-8.9-1.5-11.8-4.6
		c-2.9-3-4.3-7.3-4.3-12.7c0-5.4,1.3-9.8,4-13c2.7-3.2,6.3-4.8,10.8-4.8c4.2,0,7.6,1.4,10,4.2c2.5,2.8,3.7,6.5,3.7,11v3.2h-23.3
		c0.1,4,1.1,7,3,9c1.9,2,4.6,3.1,8,3.1c3.6,0,7.2-0.8,10.8-2.3v4.6c-1.8,0.8-3.5,1.4-5.1,1.7C382.8,62.2,380.9,62.3,378.6,62.3
		L378.6,62.3z M357,61.7h-5.2V40.5H328v21.2h-5.2v-45h5.2v19.2h23.7V16.6h5.2V61.7L357,61.7z"/>
	<path fill="#ffffff" d="M314.9,58.1c0.9,0,1.8-0.1,2.6-0.2c0.8-0.1,1.5-0.3,2-0.4v3.9c-0.6,0.3-1.4,0.5-2.4,0.7
		c-1.1,0.2-2.1,0.3-2.9,0.3c-6.5,0-9.8-3.4-9.8-10.3V31.9h-4.8v-2.5l4.8-2.1l2.2-7.2h3v7.8h9.8v4h-9.8v19.9c0,2,0.5,3.6,1.5,4.7
		C311.9,57.6,313.2,58.1,314.9,58.1L314.9,58.1z M292.6,61.7V39.9c0-2.8-0.6-4.8-1.9-6.2c-1.3-1.4-3.2-2-5.9-2c-3.6,0-6.1,1-7.8,2.9
		c-1.6,1.9-2.4,5.1-2.4,9.5v17.6h-5.1v-48h5.1v14.5c0,1.7-0.1,3.2-0.2,4.3h0.3c1-1.6,2.4-2.9,4.3-3.8c1.9-0.9,4-1.4,6.4-1.4
		c4.1,0,7.2,1,9.3,2.9c2.1,2,3.1,5.1,3.1,9.3v22H292.6L292.6,61.7z M242.6,38.7c0,2.4,0.7,4.2,2,5.4c1.3,1.2,3.2,1.8,5.6,1.8
		c5,0,7.5-2.4,7.5-7.3c0-5.1-2.5-7.6-7.6-7.6c-2.4,0-4.3,0.7-5.6,1.9C243.3,34.3,242.6,36.2,242.6,38.7L242.6,38.7z M239.9,67.4
		c0,1.8,0.8,3.2,2.3,4.2c1.5,0.9,3.7,1.4,6.6,1.4c4.3,0,7.5-0.6,9.5-1.9c2.1-1.3,3.1-3,3.1-5.2c0-1.8-0.6-3.1-1.7-3.8
		c-1.1-0.7-3.3-1.1-6.4-1.1h-6.1c-2.3,0-4.1,0.6-5.4,1.7C240.5,63.7,239.9,65.3,239.9,67.4L239.9,67.4z M266.8,27.9v3.2l-6.2,0.7
		c0.6,0.7,1.1,1.7,1.5,2.8c0.5,1.2,0.7,2.5,0.7,3.9c0,3.3-1.1,5.9-3.4,7.9c-2.3,2-5.4,3-9.3,3c-1,0-1.9-0.1-2.8-0.2
		c-2.2,1.1-3.3,2.6-3.3,4.3c0,0.9,0.4,1.6,1.1,2c0.8,0.4,2.1,0.7,3.9,0.7h6c3.7,0,6.5,0.8,8.4,2.3c2,1.5,2.9,3.8,2.9,6.7
		c0,3.7-1.5,6.6-4.5,8.5c-3,2-7.4,2.9-13.1,2.9c-4.4,0-7.8-0.8-10.2-2.5c-2.4-1.7-3.6-4-3.6-7c0-2,0.7-3.8,2-5.3
		c1.3-1.5,3.2-2.5,5.5-3c-0.9-0.4-1.6-1-2.2-1.8c-0.6-0.8-0.9-1.8-0.9-2.9c0-1.3,0.3-2.3,1-3.2c0.7-0.9,1.7-1.8,3.1-2.7
		c-1.7-0.7-3.2-1.9-4.3-3.7c-1.1-1.7-1.6-3.7-1.6-5.9c0-3.7,1.1-6.5,3.3-8.5c2.2-2,5.4-3,9.4-3c1.8,0,3.4,0.2,4.8,0.6H266.8
		L266.8,27.9z M227,18.8c0-1.2,0.3-2,0.9-2.6c0.6-0.5,1.3-0.8,2.2-0.8c0.8,0,1.5,0.3,2.1,0.8c0.6,0.6,0.9,1.4,0.9,2.6
		c0,1.2-0.3,2-0.9,2.6c-0.6,0.6-1.3,0.9-2.1,0.9c-0.9,0-1.6-0.3-2.2-0.9C227.3,20.8,227,19.9,227,18.8L227,18.8z M232.5,61.7h-5.1
		V27.9h5.1V61.7L232.5,61.7z M220.8,61.7h-5.1v-48h5.1V61.7L220.8,61.7z M197.4,31.6c-2.7,0-4.9,0.9-6.5,2.6
		c-1.6,1.8-2.6,4.2-2.9,7.3h17.6c0-3.2-0.7-5.7-2.2-7.4C202.1,32.5,200.1,31.6,197.4,31.6L197.4,31.6z M198.8,62.3
		c-5,0-8.9-1.5-11.8-4.6c-2.9-3-4.3-7.3-4.3-12.7c0-5.4,1.3-9.8,4-13c2.7-3.2,6.3-4.8,10.8-4.8c4.2,0,7.6,1.4,10,4.2
		c2.5,2.8,3.7,6.5,3.7,11v3.2h-23.3c0.1,4,1.1,7,3,9c1.9,2,4.6,3.1,8,3.1c3.6,0,7.2-0.8,10.8-2.3v4.6c-1.8,0.8-3.5,1.4-5.1,1.7
		C203,62.2,201.1,62.3,198.8,62.3L198.8,62.3z M173.1,61.7v-22c0-2.7-0.6-4.7-1.7-6c-1.1-1.3-2.9-2-5.4-2c-3.2,0-5.5,0.9-7.1,2.7
		c-1.5,1.8-2.3,4.6-2.3,8.4v18.9h-5.1v-22c0-2.7-0.6-4.7-1.7-6c-1.2-1.3-2.9-2-5.4-2c-3.2,0-5.5,1-7,2.9c-1.5,1.9-2.2,5.1-2.2,9.4
		v17.7h-5.1V27.9h4.2l0.8,4.6h0.2c1-1.6,2.3-2.9,4.1-3.9c1.8-0.9,3.7-1.4,5.9-1.4c5.3,0,8.7,1.9,10.3,5.7h0.2c1-1.8,2.5-3.2,4.4-4.2
		c1.9-1,4.1-1.5,6.5-1.5c3.8,0,6.7,1,8.6,2.9c1.9,2,2.9,5.1,2.9,9.4v22H173.1L173.1,61.7z M117.9,18.8c0-1.2,0.3-2,0.9-2.6
		c0.6-0.5,1.3-0.8,2.2-0.8c0.8,0,1.5,0.3,2.1,0.8c0.6,0.6,0.9,1.4,0.9,2.6c0,1.2-0.3,2-0.9,2.6c-0.6,0.6-1.3,0.9-2.1,0.9
		c-0.9,0-1.6-0.3-2.2-0.9C118.2,20.8,117.9,19.9,117.9,18.8L117.9,18.8z M123.4,61.7h-5.1V27.9h5.1V61.7L123.4,61.7z M90.6,61.7v-45
		h5.2V57h19.9v4.7H90.6L90.6,61.7z"/>
	<path fill="#ffffff" d="M128.7,93.9h-2.4V89h-4.5v4.9h-2.4V82.5h2.4V87h4.5v-4.5h2.4V93.9L128.7,93.9z M141.1,93.9h-6.6V82.5h6.6v2
		H137V87h3.9v2H137v2.9h4.2V93.9L141.1,93.9z M153.5,93.9l-0.8-2.7h-4.2l-0.8,2.7H145l4-11.5h3l4.1,11.5H153.5L153.5,93.9z
		 M152.1,89.2c-0.8-2.5-1.2-3.9-1.3-4.2c-0.1-0.3-0.2-0.6-0.2-0.8c-0.2,0.7-0.7,2.3-1.5,5H152.1L152.1,89.2z M160.5,93.9V82.5h2.4
		v9.4h4.6v2H160.5L160.5,93.9z M176.6,93.9h-2.4v-9.4h-3.1v-2h8.6v2h-3.1V93.9L176.6,93.9z M193.8,93.9h-2.4V89h-4.5v4.9h-2.4V82.5
		h2.4V87h4.5v-4.5h2.4V93.9L193.8,93.9z M199.1,92.8c0-0.4,0.1-0.8,0.3-1c0.2-0.2,0.6-0.3,1-0.3c0.4,0,0.8,0.1,1,0.3
		c0.2,0.2,0.4,0.6,0.4,1c0,0.4-0.1,0.7-0.4,1c-0.2,0.2-0.6,0.4-1,0.4c-0.4,0-0.8-0.1-1-0.4C199.2,93.5,199.1,93.2,199.1,92.8
		L199.1,92.8z M211.3,93.9V82.5h2.4v11.4H211.3L211.3,93.9z M229.7,93.9h-3.1l-5-8.7h-0.1c0.1,1.5,0.2,2.6,0.2,3.3v5.4h-2.2V82.5
		h3.1l5,8.6h0.1c-0.1-1.5-0.1-2.5-0.1-3.2v-5.4h2.2V93.9L229.7,93.9z M242.3,90.7c0,1-0.4,1.8-1.1,2.4c-0.7,0.6-1.8,0.9-3.1,0.9
		c-1.2,0-2.3-0.2-3.2-0.7v-2.2c0.8,0.3,1.4,0.6,2,0.7c0.5,0.1,1,0.2,1.5,0.2c0.5,0,0.9-0.1,1.2-0.3c0.3-0.2,0.4-0.5,0.4-0.9
		c0-0.2-0.1-0.4-0.2-0.6c-0.1-0.2-0.3-0.3-0.6-0.5c-0.2-0.2-0.7-0.4-1.5-0.8c-0.7-0.3-1.2-0.6-1.6-0.9c-0.3-0.3-0.6-0.7-0.8-1.1
		c-0.2-0.4-0.3-0.9-0.3-1.4c0-1,0.3-1.8,1-2.4c0.7-0.6,1.6-0.9,2.8-0.9c0.6,0,1.2,0.1,1.7,0.2c0.5,0.1,1.1,0.3,1.7,0.6l-0.8,1.9
		c-0.6-0.2-1.1-0.4-1.5-0.5c-0.4-0.1-0.8-0.1-1.2-0.1c-0.5,0-0.8,0.1-1.1,0.3c-0.2,0.2-0.4,0.5-0.4,0.8c0,0.2,0,0.4,0.1,0.6
		c0.1,0.2,0.3,0.3,0.5,0.5c0.2,0.2,0.7,0.4,1.5,0.8c1.1,0.5,1.8,1,2.2,1.5C242.1,89.4,242.3,90,242.3,90.7L242.3,90.7z M256.7,82.5
		v7.4c0,0.8-0.2,1.6-0.6,2.2c-0.4,0.6-0.9,1.1-1.6,1.5c-0.7,0.3-1.6,0.5-2.5,0.5c-1.5,0-2.6-0.4-3.4-1.1c-0.8-0.7-1.2-1.8-1.2-3.1
		v-7.4h2.4v7c0,0.9,0.2,1.5,0.5,1.9c0.4,0.4,0.9,0.6,1.8,0.6c0.8,0,1.4-0.2,1.7-0.6c0.4-0.4,0.5-1.1,0.5-2v-7H256.7L256.7,82.5z
		 M264.9,87.5h0.8c0.8,0,1.3-0.1,1.7-0.4c0.4-0.3,0.5-0.7,0.5-1.2c0-0.6-0.2-0.9-0.6-1.2c-0.4-0.2-1-0.3-1.7-0.3h-0.7V87.5
		L264.9,87.5z M264.9,89.5v4.4h-2.4V82.5h3.3c1.5,0,2.7,0.3,3.4,0.8c0.7,0.6,1.1,1.4,1.1,2.6c0,0.7-0.2,1.3-0.6,1.8
		c-0.4,0.5-0.9,0.9-1.6,1.2c1.7,2.6,2.8,4.2,3.4,5h-2.7l-2.7-4.4H264.9L264.9,89.5z M283,93.9l-0.8-2.7H278l-0.8,2.7h-2.6l4-11.5h3
		l4.1,11.5H283L283,93.9z M281.6,89.2c-0.8-2.5-1.2-3.9-1.3-4.2c-0.1-0.3-0.2-0.6-0.2-0.8c-0.2,0.7-0.7,2.3-1.5,5H281.6L281.6,89.2z
		 M300.1,93.9h-3.1l-5-8.7H292c0.1,1.5,0.1,2.6,0.1,3.3v5.4H290V82.5h3.1l5,8.6h0.1c-0.1-1.5-0.1-2.5-0.1-3.2v-5.4h2.2V93.9
		L300.1,93.9z M310.8,84.3c-0.9,0-1.6,0.3-2.1,1c-0.5,0.7-0.8,1.7-0.8,2.9c0,2.5,1,3.8,2.9,3.8c0.8,0,1.8-0.2,2.9-0.6v2
		c-0.9,0.4-2,0.6-3.1,0.6c-1.7,0-2.9-0.5-3.8-1.5c-0.9-1-1.3-2.5-1.3-4.3c0-1.2,0.2-2.2,0.6-3.1c0.4-0.9,1.1-1.6,1.9-2.1
		c0.8-0.5,1.8-0.7,2.9-0.7c1.1,0,2.2,0.3,3.3,0.8l-0.8,2c-0.4-0.2-0.9-0.4-1.3-0.5C311.7,84.4,311.3,84.3,310.8,84.3L310.8,84.3z
		 M325.7,93.9h-6.6V82.5h6.6v2h-4.2V87h3.9v2h-3.9v2.9h4.2V93.9L325.7,93.9z M330.6,92.8c0-0.4,0.1-0.8,0.4-1c0.2-0.2,0.6-0.3,1-0.3
		c0.4,0,0.8,0.1,1,0.3c0.2,0.2,0.4,0.6,0.4,1c0,0.4-0.1,0.7-0.4,1c-0.2,0.2-0.6,0.4-1,0.4c-0.4,0-0.8-0.1-1-0.4
		C330.7,93.5,330.6,93.2,330.6,92.8L330.6,92.8z M349.5,90.7c0,1-0.4,1.8-1.1,2.4c-0.7,0.6-1.8,0.9-3.1,0.9c-1.2,0-2.3-0.2-3.2-0.7
		v-2.2c0.8,0.3,1.4,0.6,2,0.7c0.5,0.1,1,0.2,1.5,0.2c0.5,0,0.9-0.1,1.2-0.3c0.3-0.2,0.4-0.5,0.4-0.9c0-0.2-0.1-0.4-0.2-0.6
		c-0.1-0.2-0.3-0.3-0.5-0.5c-0.2-0.2-0.7-0.4-1.5-0.8c-0.7-0.3-1.2-0.6-1.6-0.9c-0.4-0.3-0.6-0.7-0.8-1.1c-0.2-0.4-0.3-0.9-0.3-1.4
		c0-1,0.4-1.8,1-2.4c0.7-0.6,1.6-0.9,2.8-0.9c0.6,0,1.2,0.1,1.7,0.2c0.5,0.1,1.1,0.3,1.7,0.6l-0.8,1.9c-0.6-0.2-1.1-0.4-1.5-0.5
		c-0.4-0.1-0.8-0.1-1.2-0.1c-0.5,0-0.8,0.1-1.1,0.3c-0.2,0.2-0.4,0.5-0.4,0.8c0,0.2,0.1,0.4,0.1,0.6c0.1,0.2,0.3,0.3,0.5,0.5
		c0.2,0.2,0.7,0.4,1.5,0.8c1.1,0.5,1.8,1,2.2,1.5C349.3,89.4,349.5,90,349.5,90.7L349.5,90.7z M354.6,93.9V82.5h2.4v11.4H354.6
		L354.6,93.9z M367.7,93.9l-2.8-9h-0.1c0.1,1.8,0.2,3,0.2,3.6v5.3h-2.2V82.5h3.3l2.7,8.8h0.1l2.9-8.8h3.3v11.4h-2.3v-5.4
		c0-0.3,0-0.6,0-0.9c0-0.3,0-1.2,0.1-2.7h-0.1l-2.9,9H367.7L367.7,93.9z M383.3,87.9h0.8c0.7,0,1.3-0.1,1.7-0.4
		c0.4-0.3,0.6-0.7,0.6-1.3c0-0.6-0.2-1-0.5-1.3c-0.3-0.3-0.8-0.4-1.5-0.4h-1.1V87.9L383.3,87.9z M388.8,86c0,1.2-0.4,2.2-1.2,2.8
		c-0.8,0.6-1.9,1-3.3,1h-1v4.1h-2.4V82.5h3.6c1.4,0,2.4,0.3,3.2,0.9C388.4,84,388.8,84.9,388.8,86L388.8,86z M393.9,93.9V82.5h2.4
		v9.4h4.6v2H393.9L393.9,93.9z M405.9,93.9V82.5h2.4v11.4H405.9L405.9,93.9z M416.6,93.9h-2.4V82.5h6.6v2h-4.2v2.9h3.9v2h-3.9V93.9
		L416.6,93.9z M426,93.9V82.5h2.4v11.4H426L426,93.9z M440.8,93.9h-6.6V82.5h6.6v2h-4.2V87h3.9v2h-3.9v2.9h4.2V93.9L440.8,93.9z
		 M455.6,88.1c0,1.9-0.5,3.3-1.6,4.3c-1.1,1-2.6,1.5-4.6,1.5h-3.2V82.5h3.6c1.9,0,3.3,0.5,4.3,1.5C455.1,84.9,455.6,86.3,455.6,88.1
		L455.6,88.1z M453.1,88.1c0-2.5-1.1-3.7-3.3-3.7h-1.3v7.4h1C452,91.9,453.1,90.7,453.1,88.1L453.1,88.1z"/>
	<path fill="#ffffff" d="M458.8,92.2c0-0.4,0.1-0.8,0.4-1c0.2-0.2,0.6-0.3,1-0.3c0.4,0,0.8,0.1,1,0.3c0.2,0.2,0.4,0.6,0.4,1
		c0,0.4-0.1,0.7-0.4,1c-0.2,0.2-0.6,0.4-1,0.4c-0.4,0-0.8-0.1-1-0.4C458.9,92.9,458.8,92.6,458.8,92.2L458.8,92.2z"/>
</g>
</svg>
