<?xml version="1.0" encoding="utf-8"?>
<!-- Generator: Adobe Illustrator 18.0.0, SVG Export Plug-In . SVG Version: 6.00 Build 0)  -->
<!DOCTYPE svg PUBLIC "-//W3C//DTD SVG 1.1//EN" "http://www.w3.org/Graphics/SVG/1.1/DTD/svg11.dtd">
<svg version="1.1" id="Layer_1" xmlns="http://www.w3.org/2000/svg" xmlns:xlink="http://www.w3.org/1999/xlink" x="0px" y="0px"
	 viewBox="0 0 1000 1000" enable-background="new 0 0 1000 1000" xml:space="preserve">
<g>
	<path fill="#1A1A1A" d="M827.9,228.1H114.4c-14.6,0-26.9,11.9-26.9,26.9v437.7v16.2v23c0,0.8,0,2,0,2.8c0,0.8,0,1.2,0,2
		c0,6.7,5.5,11.9,11.9,11.9h102.1h48.3h443.2H761h81.9c6.7,0,11.9-5.5,11.9-11.9c0-0.8,0-1.2,0-2c0-0.8,0-2,0-2.8v-23v-16.2V255
		C854.8,240,842.5,228.1,827.9,228.1z"/>
	
		<linearGradient id="SVGID_1_" gradientUnits="userSpaceOnUse" x1="28.5" y1="935.4" x2="209.6" y2="935.4" gradientTransform="matrix(3.9573 0 0 -3.9573 0 4185.3975)">
		<stop  offset="0" style="stop-color:#932A8E"/>
		<stop  offset="1" style="stop-color:#2AAAE2"/>
	</linearGradient>
	<rect x="112.8" y="259.4" fill="url(#SVGID_1_)" width="716.7" height="448.8"/>
	<circle fill="#333333" cx="470.9" cy="247.1" r="4"/>
	<path opacity="0.2" fill="#FFFFFF" enable-background="new    " d="M760.6,748.5h81.9c6.7,0,11.9-5.5,11.9-11.9c0-0.8,0-1.2,0-2
		c0-0.8,0-2,0-2.8v-23v-16.2V255c0-14.6-11.9-26.9-26.9-26.9H433.3l-2.8,2.8l153.5,511.3l2.4,5.1l105.7,1.2H760.6z"/>
	<path fill="#CDCCCC" d="M827.9,230.9c13.5,0,24.1,10.7,24.1,24.1v437.7v16.2v23c0,0.8,0,4.4,0,4.7c0,5.1-4.4,9.5-9.5,9.5h-81.9
		h-68.1H249.3h-47.9H99.3c-5.1,0-9.5-4.4-9.5-9.5c0-0.4,0-4,0-4.7v-23v-16.2V255c0-13.5,10.7-24.1,24.1-24.1H827.9 M827.9,228.1
		H114.4c-14.6,0-26.9,11.9-26.9,26.9v437.7v16.2v23c0,0.8,0,4,0,4.7c0,6.7,5.5,11.9,11.9,11.9h102.1h48.3h443.2H761h81.9
		c6.7,0,11.9-5.5,11.9-11.9c0-0.8,0-3.6,0-4.7v-23v-16.2V255C854.8,240,842.5,228.1,827.9,228.1L827.9,228.1z"/>
	<path fill="#CDCCCC" d="M895.1,741.8H536.6c-0.4,5.5-4.7,10.3-10.7,10.3H415.1c-5.9,0-10.3-4.7-10.7-10.3h-374H0V758
		c0,0,11.5,11.9,47.1,11.9l-0.4-4.4h0.4v4.4h856.4v-0.4c26.5-1.6,36.8-10.3,38.4-11.5l0,0v-16.2H895.1z"/>
	<path fill="#CDCCCC" d="M525.9,752.1c5.9,0,10.3-4.7,10.7-10.3H404.8c0.4,5.5,4.7,10.3,10.7,10.3H525.9z"/>
	<path fill="#E6E6E5" d="M3.2,760.8h934.7c2-1.2,2.8-2,3.2-2.4l0,0v-16.2h-46.3H536.2c-0.4,5.5-4.7,10.3-10.7,10.3H414.7
		c-5.9,0-10.3-4.7-10.7-10.3H30.5H0v16.2C0,758,0.8,759.2,3.2,760.8z"/>
</g>
<path fill="#1A1A1A" d="M518,770.5c-7.9,0-14.2-6.3-14.2-14.2v-319c0-7.9,6.3-14.2,14.2-14.2h427.4c7.9,0,14.2,6.3,14.2,14.2v319
	c0,7.9-6.3,14.2-14.2,14.2H518z"/>
<linearGradient id="SVGID_2_" gradientUnits="userSpaceOnUse" x1="177.7931" y1="904.938" x2="248.9931" y2="904.938" gradientTransform="matrix(-5.330027e-10 3.9573 3.9573 5.330027e-10 -2850.2178 -247.7245)">
	<stop  offset="0" style="stop-color:#932A8E"/>
	<stop  offset="1" style="stop-color:#2AAAE2"/>
</linearGradient>
<rect x="543.3" y="455.8" fill="url(#SVGID_2_)" width="375.1" height="281.8"/>
<path opacity="0.2" fill="#FFFFFF" enable-background="new    " d="M518,770.5h427.4c7.9,0,14.2-6.3,14.2-14.2V556.8L503.3,692.5
	v63.7C503.3,764.1,510,770.5,518,770.5z"/>
<circle fill="#010101" cx="938.2" cy="596.7" r="3.2"/>
<circle fill="#1A1A1A" cx="521.9" cy="596.7" r="9.5"/>
<path fill="#1A1A1A" d="M512.4,596.7c0,5.1,4.4,9.5,9.5,9.5v-19C516.8,587.2,512.4,591.6,512.4,596.7z"/>
<path fill="none" stroke="#989898" stroke-width="0.5" stroke-miterlimit="10" d="M519.5,600.3c-0.8,0-1.2-0.4-1.2-1.2v-4.7
	c0-0.8,0.4-1.2,1.2-1.2h4.7c0.8,0,1.2,0.8,1.2,1.2v4.7c0,0.8-0.4,1.2-1.2,1.2H519.5z"/>
<circle fill="#8DD7F3" cx="791.5" cy="337" r="0.4"/>
<circle fill="#4E4E4E" cx="938.7" cy="531.3" r="2"/>
<circle fill="#8DD7F3" cx="938.7" cy="531.3" r="0.4"/>
<g>
	<path fill="#1A1A1A" d="M1000,535.2v-0.4c0-0.4,0-0.4,0-0.8v-0.4c0-0.4,0-0.4,0-0.8v-0.4c0-0.4,0-0.4-0.4-0.8c0-0.4,0-0.4-0.4-0.4
		c0,0,0-0.4-0.4-0.4c0-0.4-0.4-0.4-0.4-0.8c0,0,0-0.4-0.4-0.4c0-0.4-0.4-0.4-0.4-0.8c0,0,0-0.4-0.4-0.4c0-0.4-0.4-0.4-0.4-0.8
		c0,0,0,0-0.4-0.4c-0.4-0.4-0.4-0.4-0.8-0.8l0,0c-2-2-4.7-3.2-7.5-3.6l0,0c0-0.8-0.8-1.6-1.6-1.6h-13.9c-0.8,0-1.6,0.8-1.6,1.6
		h-79.9c-7.5,0-13.9,6.3-13.9,13.9V551h-0.8c-0.8,0-1.2,0.4-1.2,1.2v10.3c0,0.8,0.4,1.2,1.2,1.2h0.8v4h-1.2c-0.4,0-0.8,0.4-0.8,0.8
		v6.7c0,0.4,0.4,0.8,0.8,0.8h1.2v2.8h-1.2c-0.4,0-0.8,0.4-0.8,0.8v6.7c0,0.4,0.4,0.8,0.8,0.8h1.2v118.7v51.8
		c0,7.5,6.3,13.9,13.9,13.9h95.4c7.5,0,13.9-6.3,13.9-13.9v-51.8V536.4C1000,536,1000,535.6,1000,535.2z"/>
	<path fill="#4E4E4E" d="M950.1,539.6c0,0.8-0.8,1.6-1.6,1.6h-19.4c-0.8,0-1.6-0.8-1.6-1.6l0,0c0-0.8,0.8-1.6,1.6-1.6h19.4
		C949.3,538,950.1,538.8,950.1,539.6L950.1,539.6z"/>
	
		<linearGradient id="SVGID_3_" gradientUnits="userSpaceOnUse" x1="222.9518" y1="894.65" x2="251.4166" y2="894.65" gradientTransform="matrix(3.9573 0 0 -3.9573 0 4185.3975)">
		<stop  offset="0" style="stop-color:#932A8E"/>
		<stop  offset="1" style="stop-color:#2AAAE2"/>
	</linearGradient>
	<path fill="url(#SVGID_3_)" d="M993.3,550.7H884.1c-0.8,0-1.6,0.8-1.6,1.6v185.6c0,0.8,0.8,1.6,1.6,1.6h109.2
		c0.8,0,1.6-0.8,1.6-1.6V552.6C994.9,551.4,994.1,550.7,993.3,550.7z"/>
	<path opacity="0.2" fill="#FFFFFF" enable-background="new    " d="M993.3,550.7H884.1c-0.8,0-1.6,0.8-1.6,1.6l110.8,187.2
		c0.8,0,1.6-0.8,1.6-1.6V552.6C994.9,551.4,994.1,550.7,993.3,550.7z"/>
	<circle fill="#1A1A1A" cx="938.7" cy="754.5" r="9.9"/>
	<path fill="#1A1A1A" d="M938.7,763.9c5.5,0,9.9-4.4,9.9-9.9h-19.4C928.8,759.6,933.1,763.9,938.7,763.9z"/>
	<path fill="none" stroke="#818181" stroke-width="0.5" stroke-miterlimit="10" d="M942.6,756.4c0,0.8-0.8,1.6-1.6,1.6h-4.4
		c-0.8,0-1.6-0.8-1.6-1.6v-4.4c0-0.8,0.8-1.6,1.6-1.6h4.4c0.8,0,1.6,0.8,1.6,1.6V756.4z"/>
</g>
</svg>
