<?xml version="1.0" encoding="utf-8"?>
<!-- Generator: Adobe Illustrator 18.0.0, SVG Export Plug-In . SVG Version: 6.00 Build 0)  -->
<!DOCTYPE svg PUBLIC "-//W3C//DTD SVG 1.1//EN" "http://www.w3.org/Graphics/SVG/1.1/DTD/svg11.dtd">
<svg version="1.1" id="Layer_1" xmlns="http://www.w3.org/2000/svg" xmlns:xlink="http://www.w3.org/1999/xlink" x="0px" y="0px"
	 viewBox="0 119.2 1000 761.6" style="enable-background:new 0 119.2 1000 761.6;" xml:space="preserve">
<path style="fill:#1A1A1A;" d="M969,119.2c16.9,0,31,14.1,31,31v699.6c0,16.9-14.1,31-31,31H31c-16.9,0-31-14.1-31-31V150.2
	c0-16.9,14.1-31,31-31H969z"/>
<linearGradient id="SVGID_1_" gradientUnits="userSpaceOnUse" x1="12.4443" y1="975.9003" x2="56.2443" y2="975.9003" gradientTransform="matrix(6.332382e-10 -14.1044 -14.1044 -6.332382e-10 14265.8711 984.4048)">
	<stop  offset="0" style="stop-color:#932A8E"/>
	<stop  offset="1" style="stop-color:#2AAAE2"/>
</linearGradient>
<rect x="90.3" y="191.1" style="fill:url(#SVGID_1_);" width="822.3" height="617.8"/>
<path style="opacity:0.2;fill:#FFFFFF;enable-background:new    ;" d="M969,119.2H31c-16.9,0-31,14.1-31,31v437.2l1000-297.6V150.2
	C1000,133.3,985.9,119.2,969,119.2z"/>
<circle style="fill:#010101;" cx="46.5" cy="500" r="7.1"/>
<circle style="fill:#131414;" cx="959.1" cy="500" r="21.2"/>
<path d="M980.3,500c0-11.3-9.9-21.2-21.2-21.2v40.9C971.8,521.2,980.3,511.3,980.3,500z"/>
<path style="fill:none;stroke:#989898;stroke-miterlimit:10;" d="M964.7,492.9c1.4,0,2.8,1.4,2.8,2.8v9.9c0,1.4-1.4,2.8-2.8,2.8
	h-9.9c-1.4,0-2.8-1.4-2.8-2.8v-9.9c0-1.4,1.4-2.8,2.8-2.8H964.7z"/>
<circle style="fill:#8DD7F3;" cx="46.5" cy="500" r="1.4"/>
</svg>
